<svg id="visual" viewBox="0 0 960 300" width="960" height="300" xmlns="http://www.w3.org/2000/svg" xmlns:xlink="http://www.w3.org/1999/xlink" version="1.1"><rect x="0" y="0" width="960" height="300" fill="#202731"></rect><path d="M0 235L20 233.2C40 231.3 80 227.7 120 221.5C160 215.3 200 206.7 240 198.8C280 191 320 184 360 176.5C400 169 440 161 480 164.8C520 168.7 560 184.3 600 189.8C640 195.3 680 190.7 720 199.5C760 208.3 800 230.7 840 230.5C880 230.3 920 207.7 940 196.3L960 185L960 0L940 0C920 0 880 0 840 0C800 0 760 0 720 0C680 0 640 0 600 0C560 0 520 0 480 0C440 0 400 0 360 0C320 0 280 0 240 0C200 0 160 0 120 0C80 0 40 0 20 0L0 0Z" fill="#202731"></path><path d="M0 222L20 207.2C40 192.3 80 162.7 120 152.2C160 141.7 200 150.3 240 163.7C280 177 320 195 360 196.3C400 197.7 440 182.3 480 179.2C520 176 560 185 600 192.3C640 199.7 680 205.3 720 210C760 214.7 800 218.3 840 202.7C880 187 920 152 940 134.5L960 117L960 0L940 0C920 0 880 0 840 0C800 0 760 0 720 0C680 0 640 0 600 0C560 0 520 0 480 0C440 0 400 0 360 0C320 0 280 0 240 0C200 0 160 0 120 0C80 0 40 0 20 0L0 0Z" fill="#3b3559"></path><path d="M0 103L20 114C40 125 80 147 120 143C160 139 200 109 240 106.5C280 104 320 129 360 136.5C400 144 440 134 480 133.5C520 133 560 142 600 150.3C640 158.7 680 166.3 720 163C760 159.7 800 145.3 840 137.7C880 130 920 129 940 128.5L960 128L960 0L940 0C920 0 880 0 840 0C800 0 760 0 720 0C680 0 640 0 600 0C560 0 520 0 480 0C440 0 400 0 360 0C320 0 280 0 240 0C200 0 160 0 120 0C80 0 40 0 20 0L0 0Z" fill="#77356c"></path><path d="M0 87L20 88.8C40 90.7 80 94.3 120 88.5C160 82.7 200 67.3 240 71.2C280 75 320 98 360 102.7C400 107.3 440 93.7 480 88.8C520 84 560 88 600 83C640 78 680 64 720 65C760 66 800 82 840 92.7C880 103.3 920 108.7 940 111.3L960 114L960 0L940 0C920 0 880 0 840 0C800 0 760 0 720 0C680 0 640 0 600 0C560 0 520 0 480 0C440 0 400 0 360 0C320 0 280 0 240 0C200 0 160 0 120 0C80 0 40 0 20 0L0 0Z" fill="#b62b5e"></path><path d="M0 64L20 58.2C40 52.3 80 40.7 120 35.7C160 30.7 200 32.3 240 36.3C280 40.3 320 46.7 360 43.8C400 41 440 29 480 25.7C520 22.3 560 27.7 600 28.7C640 29.7 680 26.3 720 23.5C760 20.7 800 18.3 840 19.8C880 21.3 920 26.7 940 29.3L960 32L960 0L940 0C920 0 880 0 840 0C800 0 760 0 720 0C680 0 640 0 600 0C560 0 520 0 480 0C440 0 400 0 360 0C320 0 280 0 240 0C200 0 160 0 120 0C80 0 40 0 20 0L0 0Z" fill="#dd3f31"></path></svg>