<svg id="visual" viewBox="0 0 960 300" width="960" height="300" xmlns="http://www.w3.org/2000/svg" xmlns:xlink="http://www.w3.org/1999/xlink" version="1.1"><rect x="0" y="0" width="960" height="300" fill="#202731"></rect><path d="M0 96L22.8 98C45.7 100 91.3 104 137 102.7C182.7 101.3 228.3 94.7 274 97.2C319.7 99.7 365.3 111.3 411.2 109.3C457 107.3 503 91.7 548.8 90C594.7 88.3 640.3 100.7 686 103.3C731.7 106 777.3 99 823 97.3C868.7 95.7 914.3 99.3 937.2 101.2L960 103L960 0L937.2 0C914.3 0 868.7 0 823 0C777.3 0 731.7 0 686 0C640.3 0 594.7 0 548.8 0C503 0 457 0 411.2 0C365.3 0 319.7 0 274 0C228.3 0 182.7 0 137 0C91.3 0 45.7 0 22.8 0L0 0Z" fill="#645bdf"></path><path d="M0 84L22.8 82.8C45.7 81.7 91.3 79.3 137 80.2C182.7 81 228.3 85 274 85.7C319.7 86.3 365.3 83.7 411.2 80.7C457 77.7 503 74.3 548.8 77.2C594.7 80 640.3 89 686 89C731.7 89 777.3 80 823 76C868.7 72 914.3 73 937.2 73.5L960 74L960 0L937.2 0C914.3 0 868.7 0 823 0C777.3 0 731.7 0 686 0C640.3 0 594.7 0 548.8 0C503 0 457 0 411.2 0C365.3 0 319.7 0 274 0C228.3 0 182.7 0 137 0C91.3 0 45.7 0 22.8 0L0 0Z" fill="#5b51df"></path><path d="M0 52L22.8 56.5C45.7 61 91.3 70 137 73.5C182.7 77 228.3 75 274 74.2C319.7 73.3 365.3 73.7 411.2 69.3C457 65 503 56 548.8 53.2C594.7 50.3 640.3 53.7 686 57.7C731.7 61.7 777.3 66.3 823 70.2C868.7 74 914.3 77 937.2 78.5L960 80L960 0L937.2 0C914.3 0 868.7 0 823 0C777.3 0 731.7 0 686 0C640.3 0 594.7 0 548.8 0C503 0 457 0 411.2 0C365.3 0 319.7 0 274 0C228.3 0 182.7 0 137 0C91.3 0 45.7 0 22.8 0L0 0Z" fill="#5147de"></path><path d="M0 48L22.8 49C45.7 50 91.3 52 137 49.5C182.7 47 228.3 40 274 40.7C319.7 41.3 365.3 49.7 411.2 53.3C457 57 503 56 548.8 51.7C594.7 47.3 640.3 39.7 686 39.8C731.7 40 777.3 48 823 47.8C868.7 47.7 914.3 39.3 937.2 35.2L960 31L960 0L937.2 0C914.3 0 868.7 0 823 0C777.3 0 731.7 0 686 0C640.3 0 594.7 0 548.8 0C503 0 457 0 411.2 0C365.3 0 319.7 0 274 0C228.3 0 182.7 0 137 0C91.3 0 45.7 0 22.8 0L0 0Z" fill="#473cde"></path><path d="M0 28L22.8 25.8C45.7 23.7 91.3 19.3 137 16.7C182.7 14 228.3 13 274 13.3C319.7 13.7 365.3 15.3 411.2 17.7C457 20 503 23 548.8 23C594.7 23 640.3 20 686 20.2C731.7 20.3 777.3 23.7 823 24.7C868.7 25.7 914.3 24.3 937.2 23.7L960 23L960 0L937.2 0C914.3 0 868.7 0 823 0C777.3 0 731.7 0 686 0C640.3 0 594.7 0 548.8 0C503 0 457 0 411.2 0C365.3 0 319.7 0 274 0C228.3 0 182.7 0 137 0C91.3 0 45.7 0 22.8 0L0 0Z" fill="#3c31dd"></path></svg>